<svg width="49" height="48" viewBox="0 0 49 48" fill="none" xmlns="http://www.w3.org/2000/svg">
<g id="Group">
<path id="Vector" d="M2.32363 0.40625C1.25488 0.40625 0.364258 1.1875 0.364258 2.125V45.875C0.364258 46.8125 1.25488 47.5938 2.32363 47.5938C3.39238 47.5938 4.28301 46.8125 4.28301 45.875V2.125C4.28301 1.1875 3.39238 0.40625 2.32363 0.40625Z" fill="#111928"/>
<path id="Vector_2" d="M46.6767 24.1562H20.047L26.1923 18.6875C26.9938 17.9844 26.9938 16.8906 26.1923 16.1875C25.3907 15.4844 24.1438 15.4844 23.3423 16.1875L13.8126 24.625C13.011 25.3281 13.011 26.4219 13.8126 27.125L23.2532 35.5625C23.6095 35.875 24.1438 36.1094 24.6782 36.1094C25.2126 36.1094 25.6579 35.9531 26.1032 35.6406C26.9048 34.9375 26.9048 33.8437 26.1032 33.1406L20.047 27.6719H46.6767C47.7454 27.6719 48.636 26.8906 48.636 25.9531C48.636 25.0156 47.8345 24.1562 46.6767 24.1562Z" fill="#111928"/>
</g>
</svg>
