<svg width="183" height="183" viewBox="0 0 183 183" fill="none" xmlns="http://www.w3.org/2000/svg">
<g id="&#240;&#159;&#166;&#134; icon &#34;Book Reader&#34;">
<path id="Vector" d="M125.81 34.3124C125.81 15.362 110.448 0 91.4982 0C72.5481 0 57.1864 15.362 57.1864 34.3124C57.1864 53.2629 72.5481 68.6248 91.4982 68.6248C110.448 68.6248 125.81 53.2629 125.81 34.3124ZM83.4885 86.1742C62.2831 73.1927 27.9355 69.6256 10.651 68.6427C4.84297 68.3139 0 72.7387 0 78.3252V157.959C0 163.08 4.14244 167.352 9.46792 167.627C25.0727 168.445 56.6431 171.444 78.4633 182.435C81.8123 184.122 85.7831 181.824 85.7831 178.192V90.2702C85.7796 88.6011 84.9539 87.0713 83.4885 86.1742ZM172.345 68.6427C155.064 69.622 120.713 73.1927 99.5115 86.1742C98.0461 87.0713 97.2204 88.6618 97.2204 90.331V178.181C97.2204 181.824 101.202 184.125 104.562 182.435C126.378 171.455 157.931 168.456 173.532 167.638C178.858 167.359 183 163.088 183 157.966V78.3252C182.996 72.7387 178.153 68.3139 172.345 68.6427Z" fill="#783D19"/>
</g>
</svg>
