<svg width="49" height="64" viewBox="0 0 49 64" fill="none" xmlns="http://www.w3.org/2000/svg">
<g id="Group">
<path id="Vector" d="M47.0423 16.1188L33.4579 2.09376C32.6704 1.26876 31.5876 0.856262 30.5048 0.856262H6.87979C3.53291 0.856262 0.678223 3.74376 0.678223 7.35314V56.8531C0.678223 60.3594 3.43447 63.35 6.87979 63.35H42.022C45.3688 63.35 48.2235 60.4625 48.2235 56.8531V19.2125C48.2235 18.0781 47.8298 16.9438 47.0423 16.1188ZM33.5564 8.69376L40.9392 16.325H33.5564V8.69376ZM42.1204 58.6063H6.87979C5.89541 58.6063 5.10791 57.7813 5.10791 56.75V7.25001C5.10791 6.21876 5.89541 5.39376 6.87979 5.39376H29.1267V18.5938C29.1267 19.8313 30.111 20.9656 31.3907 20.9656H43.8923V56.75C43.7938 57.7813 43.0064 58.6063 42.1204 58.6063Z" fill="#111928"/>
<path id="Vector_2" d="M31.2923 29.0094H14.2626C13.0813 29.0094 11.9985 30.0406 11.9985 31.3813C11.9985 32.7219 12.9829 33.7531 14.2626 33.7531H31.2923C32.4735 33.7531 33.5563 32.7219 33.5563 31.3813C33.5563 30.0406 32.572 29.0094 31.2923 29.0094Z" fill="#111928"/>
<path id="Vector_3" d="M31.2923 40.3531H14.2626C13.0813 40.3531 11.9985 41.3844 11.9985 42.725C11.9985 44.0657 12.9829 45.0969 14.2626 45.0969H31.2923C32.4735 45.0969 33.5563 44.0657 33.5563 42.725C33.5563 41.3844 32.572 40.3531 31.2923 40.3531Z" fill="#111928"/>
</g>
</svg>
