<svg width="34" height="32" viewBox="0 0 34 32" fill="none" xmlns="http://www.w3.org/2000/svg">
<path id="Vector" d="M17 0C7.65 0 0 7.2 0 16C0 24.8 7.65 32 17 32C26.35 32 34 24.8 34 16C34 7.2 26.35 0 17 0ZM23.29 19.68C23.97 20.32 23.97 21.28 23.29 21.92C22.61 22.56 21.59 22.56 20.91 21.92L17 18.24L13.09 21.92C12.41 22.56 11.39 22.56 10.71 21.92C10.03 21.28 10.03 20.32 10.71 19.68L14.62 16L10.71 12.32C10.03 11.68 10.03 10.72 10.71 10.08C11.39 9.44 12.41 9.44 13.09 10.08L17 13.76L20.91 10.08C21.59 9.44 22.61 9.44 23.29 10.08C23.97 10.72 23.97 11.68 23.29 12.32L19.38 16L23.29 19.68Z" fill="black"/>
</svg>
