<svg width="58" height="52" viewBox="0 0 58 52" fill="none" xmlns="http://www.w3.org/2000/svg">
<g id="Group">
<path id="Vector" d="M51.514 0.272217H32.928C31.4983 0.272217 30.164 0.701904 29.1155 1.56128C28.0671 0.787842 26.7327 0.272217 25.303 0.272217H6.71709C3.47646 0.272217 0.712402 2.67847 0.712402 5.68628V46.0769C0.712402 48.9988 3.38115 51.491 6.71709 51.491H25.303C26.7327 51.491 28.0671 51.0613 29.1155 50.2019C30.164 50.9753 31.4983 51.491 32.928 51.491H51.514C54.7546 51.491 57.5187 49.0847 57.5187 46.0769V5.68628C57.5187 2.7644 54.7546 0.272217 51.514 0.272217ZM25.303 47.6238H6.71709C5.76397 47.6238 5.00146 46.9363 5.00146 46.0769V5.68628C5.00146 4.8269 5.76397 4.1394 6.71709 4.1394H25.303C26.2562 4.1394 27.0187 4.8269 27.0187 5.68628V46.0769C27.0187 46.9363 26.2562 47.6238 25.303 47.6238ZM53.2296 46.0769C53.2296 46.9363 52.4671 47.6238 51.514 47.6238H32.928C31.9749 47.6238 31.2124 46.9363 31.2124 46.0769V5.68628C31.2124 4.8269 31.9749 4.1394 32.928 4.1394H51.514C52.4671 4.1394 53.2296 4.8269 53.2296 5.68628V46.0769Z" fill="#111928"/>
<path id="Vector_2" d="M22.3483 9.55347H10.053C8.90928 9.55347 7.86084 10.4128 7.86084 11.53C7.86084 12.6472 8.81397 13.5066 10.053 13.5066H22.3483C23.4921 13.5066 24.5405 12.6472 24.5405 11.53C24.5405 10.4128 23.4921 9.55347 22.3483 9.55347Z" fill="#111928"/>
<path id="Vector_3" d="M22.3483 15.9988H10.053C8.90928 15.9988 7.86084 16.8582 7.86084 17.9753C7.86084 19.0925 8.81397 19.9519 10.053 19.9519H22.3483C23.4921 19.9519 24.5405 19.0925 24.5405 17.9753C24.5405 16.8582 23.4921 15.9988 22.3483 15.9988Z" fill="#111928"/>
<path id="Vector_4" d="M47.892 9.55347H36.8357C35.692 9.55347 34.6436 10.4128 34.6436 11.53C34.6436 12.6472 35.5967 13.5066 36.8357 13.5066H47.892C49.0357 13.5066 50.0842 12.6472 50.0842 11.53C50.0842 10.4128 49.1311 9.55347 47.892 9.55347Z" fill="#111928"/>
<path id="Vector_5" d="M47.892 15.9988H36.8357C35.692 15.9988 34.6436 16.8582 34.6436 17.9753C34.6436 19.0925 35.5967 19.9519 36.8357 19.9519H47.892C49.0357 19.9519 50.0842 19.0925 50.0842 17.9753C50.0842 16.8582 49.1311 15.9988 47.892 15.9988Z" fill="#111928"/>
<path id="Vector_6" d="M10.9109 23.4753C9.76719 23.4753 8.71875 24.3347 8.71875 25.4519V34.8191C8.71875 35.8503 9.67187 36.7957 10.9109 36.7957C12.15 36.7957 13.1031 35.9363 13.1031 34.8191V25.4519C13.1031 24.3347 12.15 23.4753 10.9109 23.4753Z" fill="#111928"/>
<path id="Vector_7" d="M37.4075 24.1628C36.2638 24.1628 35.2153 25.0222 35.2153 26.1394V35.5066C35.2153 36.5378 36.1685 37.4832 37.4075 37.4832C38.6466 37.4832 39.5997 36.6238 39.5997 35.5066V26.0535C39.5997 25.0222 38.6466 24.1628 37.4075 24.1628Z" fill="#111928"/>
</g>
</svg>
