<svg width="112" height="89" viewBox="0 0 112 89" fill="none" xmlns="http://www.w3.org/2000/svg">
<g id="Group">
<path id="Vector" d="M19.678 0.414062H8.0624C3.82178 0.414062 0.134277 3.35312 0.134277 7.06562V16.8109C0.134277 20.3687 3.6374 23.4625 8.0624 23.4625H19.678C23.9187 23.4625 27.6062 20.5234 27.6062 16.8109V6.91094C27.4218 3.35312 23.9187 0.414062 19.678 0.414062ZM19.1249 16.3469H8.61553V7.375H19.1249V16.3469Z" fill="#111928"/>
<path id="Vector_2" d="M44.3842 15.4187H107.625C109.837 15.4187 111.865 13.8718 111.865 11.8609C111.865 9.84997 110.022 8.3031 107.625 8.3031H44.3842C42.1717 8.3031 40.1436 9.84997 40.1436 11.8609C40.1436 13.8718 42.1717 15.4187 44.3842 15.4187Z" fill="#111928"/>
<path id="Vector_3" d="M19.678 32.125H8.0624C3.82178 32.125 0.134277 35.0641 0.134277 38.7766V48.5219C0.134277 52.0797 3.6374 55.1734 8.0624 55.1734H19.678C23.9187 55.1734 27.6062 52.2344 27.6062 48.5219V38.7766C27.4218 35.0641 23.9187 32.125 19.678 32.125ZM19.1249 48.0578H8.61553V39.0859H19.1249V48.0578Z" fill="#111928"/>
<path id="Vector_4" d="M107.625 40.1688H44.3842C42.1717 40.1688 40.1436 41.7156 40.1436 43.7266C40.1436 45.7375 41.9873 47.1297 44.3842 47.1297H107.625C109.837 47.1297 111.865 45.5828 111.865 43.7266C111.865 41.8703 109.837 40.1688 107.625 40.1688Z" fill="#111928"/>
<path id="Vector_5" d="M19.678 65.6922H8.0624C3.82178 65.6922 0.134277 68.6313 0.134277 72.3438V82.0891C0.134277 85.6469 3.6374 88.7406 8.0624 88.7406H19.678C23.9187 88.7406 27.6062 85.8016 27.6062 82.0891V72.3438C27.4218 68.6313 23.9187 65.6922 19.678 65.6922ZM19.1249 81.625H8.61553V72.6531H19.1249V81.625Z" fill="#111928"/>
<path id="Vector_6" d="M107.625 73.5812H44.3842C42.1717 73.5812 40.1436 75.1281 40.1436 77.139C40.1436 79.15 41.9873 80.6969 44.3842 80.6969H107.625C109.837 80.6969 111.865 79.15 111.865 77.139C111.865 75.1281 109.837 73.5812 107.625 73.5812Z" fill="#111928"/>
</g>
</svg>
