<svg width="66" height="61" viewBox="0 0 66 61" fill="none" xmlns="http://www.w3.org/2000/svg">
<g id="house-alt-1">
<path id="Vector" d="M63.1125 22.4937L36.5062 6.67185C34.3406 5.43279 31.5562 5.43279 29.4937 6.67185L2.88749 22.4937C1.85624 23.1609 1.54687 24.4953 2.16562 25.4484C2.88749 26.4015 4.33124 26.6875 5.36249 26.1156L7.11562 25.0672V49.1812C7.11562 52.5172 10.0031 55.1859 13.6125 55.1859H52.3875C55.9969 55.1859 58.8844 52.5172 58.8844 49.1812V25.0672L60.6375 26.1156C61.05 26.3062 61.4625 26.4969 61.875 26.4969C62.5969 26.4969 63.4219 26.1156 63.8344 25.5437C64.5562 24.4953 64.2469 23.1609 63.1125 22.4937ZM27.5344 50.9922V35.2656C27.5344 34.3125 28.3594 33.55 29.3906 33.55H36.6094C37.6406 33.55 38.4656 34.3125 38.4656 35.2656V50.9922H27.5344ZM54.2437 49.1812C54.2437 50.1343 53.4187 50.8969 52.3875 50.8969H43.1062V35.2656C43.1062 32.025 40.2187 29.3562 36.7125 29.3562H29.4937C25.9875 29.3562 23.1 32.025 23.1 35.2656V50.9922H13.8187C12.7875 50.9922 11.9625 50.2297 11.9625 49.2765V22.3031L31.9687 10.2937C32.5875 9.91248 33.4125 9.91248 34.0312 10.2937L54.2437 22.3031V49.1812Z" fill="#111928"/>
</g>
</svg>
