<svg width="60" height="51" viewBox="0 0 60 51" fill="none" xmlns="http://www.w3.org/2000/svg">
<path id="Vector" d="M51.1791 28.8142L51.3875 47.1451C51.395 47.807 51.1697 48.3825 50.7117 48.8715C50.2537 49.3605 49.7076 49.6086 49.0733 49.6158L35.0215 49.7755L34.8549 35.1108L25.487 35.2173L25.6537 49.882L11.602 50.0416C10.9677 50.0489 10.416 49.8132 9.94702 49.3348C9.47801 48.8563 9.23974 48.2861 9.23222 47.6241L9.02391 29.2933C9.02362 29.2678 9.02928 29.2296 9.0409 29.1785C9.05252 29.1275 9.05819 29.0892 9.0579 29.0637L29.8932 10.7229L51.1399 28.5855C51.1649 28.6362 51.178 28.7124 51.1791 28.8142ZM59.3095 26.0864L57.0728 28.9382C56.8802 29.1696 56.6257 29.3125 56.3091 29.367L56.1993 29.3683C55.8822 29.3719 55.625 29.2857 55.4279 29.1097L29.855 7.36226L4.78302 29.6852C4.49259 29.8922 4.20085 29.9847 3.90782 29.9625C3.5901 29.9152 3.33236 29.7781 3.13459 29.5512L0.833704 26.751C0.635647 26.4986 0.546864 26.2004 0.567353 25.8564C0.587843 25.5125 0.718907 25.2372 0.960547 25.0308L27.011 1.85642C27.7841 1.1856 28.7074 0.844093 29.7808 0.831895C30.8542 0.819696 31.785 1.14014 32.5732 1.79321L41.5904 9.48236L41.5058 2.03545C41.5017 1.67901 41.6082 1.38498 41.8251 1.15335C42.0421 0.921721 42.3213 0.803965 42.6629 0.800084L49.6888 0.720241C50.0303 0.71636 50.3121 0.82774 50.5343 1.05438C50.7565 1.28102 50.8696 1.57256 50.8736 1.92899L51.0507 17.5102L59.1436 24.3696C59.3898 24.5705 59.5271 24.8427 59.5554 25.1861C59.5837 25.5295 59.5017 25.8296 59.3095 26.0864Z" fill="black"/>
</svg>
