<svg width="50" height="48" viewBox="0 0 50 48" fill="none" xmlns="http://www.w3.org/2000/svg">
<g id="&#240;&#159;&#166;&#134; icon &#34;leaderboard&#34;">
<path id="Vector" d="M15.7895 0.55603H34.2105V24.056H50V47.556H0V16.635H15.7895V0.55603ZM15.2382 34.0202V31.2877H9.67632V31.2448L11.0511 30.1727C12.1495 29.2811 13.0653 28.3465 13.7983 27.369C14.5313 26.3916 14.9121 25.3177 14.9404 24.1473C14.9355 22.8783 14.4967 21.8512 13.6239 21.0658C12.7512 20.2806 11.4736 19.8762 9.79092 19.853C8.78513 19.8631 7.86382 20.0002 7.02697 20.2645C6.19026 20.5287 5.49237 20.8597 4.93342 21.2576L5.91855 23.5468L7.32197 22.7776C7.86434 22.5467 8.45816 22.4244 9.10355 22.4105C9.95658 22.4244 10.5762 22.6218 10.9622 23.0029C11.3484 23.3838 11.5384 23.8654 11.5322 24.4475C11.5237 25.2364 11.117 26.0869 10.3121 26.9992C9.50737 27.9114 8.28724 29.0408 6.65184 30.3872L4.75 32.009V34.0202H15.2382ZM24.0539 18.0645H27.4221V4.09253H24.558L20.5941 5.81211L21.1668 8.26267L24.008 6.99441H24.0539V18.0645ZM36.653 41.3362C37.0979 41.5906 37.7032 41.8118 38.4688 41.9995C39.2345 42.1873 40.1033 42.2859 41.0751 42.2952C42.9408 42.2719 44.3843 41.871 45.4055 41.0928C46.4268 40.3146 46.9442 39.299 46.9579 38.0462C46.9363 37.1058 46.6397 36.3375 46.068 35.7412C45.4964 35.1449 44.7792 34.7676 43.9164 34.6094V34.5663C44.7766 34.27 45.4221 33.8438 45.853 33.2878C46.2839 32.7319 46.4995 32.0838 46.4996 31.3436C46.4933 30.3706 46.08 29.5585 45.2599 28.9073C44.4397 28.2561 43.2511 27.9178 41.6938 27.8925C40.7058 27.9027 39.8064 28.0102 38.9959 28.2149C38.1854 28.4196 37.5495 28.6603 37.0884 28.9369L37.7987 31.2798L39.1133 30.7372C39.6762 30.5591 40.2689 30.4632 40.892 30.45C41.6351 30.4584 42.1879 30.5958 42.5503 30.8622C42.9125 31.1287 43.093 31.4735 43.0916 31.8966C43.0547 32.475 42.7617 32.8871 42.2122 33.1331C41.6628 33.3791 41.0776 33.4987 40.4566 33.492H39.0818V35.8342H40.5024C41.3211 35.831 42.0266 35.9946 42.6189 36.3249C43.2113 36.6551 43.5216 37.1711 43.5497 37.8728C43.5493 38.4059 43.321 38.8468 42.8653 39.1956C42.4093 39.5444 41.7287 39.7251 40.8232 39.7377C40.0962 39.7219 39.4192 39.618 38.7925 39.426L37.3633 38.8703L36.653 41.3362Z" fill="black"/>
</g>
</svg>
