<svg width="202" height="207" viewBox="0 0 202 207" fill="none" xmlns="http://www.w3.org/2000/svg">
<g id="&#240;&#159;&#166;&#134; icon &#34;leaderboard&#34;">
<path id="Vector" d="M63.7895 0H138.211V103.5H202V207H0V70.8158H63.7895V0ZM61.5622 147.385V135.35H39.0923V135.161L44.6463 130.439C49.0839 126.512 52.7837 122.396 55.7451 118.091C58.7065 113.786 60.2449 109.057 60.3592 103.902C60.3395 98.313 58.5667 93.7895 55.0408 90.3305C51.5148 86.8719 46.3531 85.0912 39.5553 84.9887C35.4919 85.0334 31.7698 85.637 28.389 86.8011C25.0087 87.9647 22.1892 89.4224 19.931 91.1748L23.911 101.257L29.5808 97.8696C31.7719 96.8526 34.171 96.3138 36.7784 96.2528C40.2246 96.3138 42.7278 97.1832 44.2874 98.8616C45.8476 100.539 46.6152 102.661 46.5902 105.224C46.5557 108.698 44.9126 112.445 41.6609 116.463C38.4098 120.48 33.4804 125.454 26.8734 131.384L19.19 138.527V147.385H61.5622ZM97.1779 77.1119H110.785V15.5757H99.2144L83.2001 23.1491L85.514 33.942L96.9924 28.3563H97.1779V77.1119ZM148.078 179.606C149.876 180.727 152.321 181.701 155.414 182.528C158.507 183.355 162.017 183.789 165.944 183.83C173.481 183.727 179.313 181.962 183.438 178.534C187.564 175.107 189.655 170.634 189.71 165.116C189.623 160.975 188.425 157.591 186.115 154.965C183.806 152.338 180.908 150.676 177.422 149.98V149.79C180.897 148.485 183.505 146.608 185.246 144.159C186.987 141.711 187.858 138.856 187.858 135.596C187.833 131.311 186.163 127.734 182.85 124.866C179.537 121.998 174.734 120.508 168.443 120.397C164.451 120.442 160.818 120.915 157.544 121.817C154.269 122.718 151.7 123.778 149.837 124.996L152.707 135.315L158.018 132.926C160.292 132.141 162.687 131.719 165.204 131.661C168.206 131.698 170.439 132.303 171.903 133.476C173.367 134.65 174.096 136.168 174.09 138.032C173.941 140.579 172.757 142.394 170.537 143.478C168.318 144.561 165.954 145.088 163.445 145.059H157.891V155.374H163.63C166.937 155.36 169.787 156.081 172.181 157.535C174.574 158.99 175.827 161.262 175.941 164.353C175.939 166.7 175.017 168.642 173.176 170.179C171.334 171.715 168.584 172.511 164.926 172.566C161.989 172.496 159.254 172.039 156.722 171.193L150.948 168.746L148.078 179.606Z" fill="#783D19"/>
</g>
</svg>
