<svg width="47" height="48" viewBox="0 0 47 48" fill="none" xmlns="http://www.w3.org/2000/svg">
<g id="Group">
<path id="Vector" d="M21.5077 32.2813C22.464 32.2813 23.3405 31.5 23.3405 30.4844V18.7656C23.3405 14.5469 26.8468 11.1094 31.1499 11.1094H40.6327L36.0108 15.4063C35.2937 16.1094 35.2937 17.2031 35.9312 17.9063C36.2499 18.2969 36.728 18.4531 37.2062 18.4531C37.6843 18.4531 38.0827 18.2969 38.4015 17.9844L45.7327 11.1875C46.2108 10.7188 46.5296 10.0156 46.5296 9.3125C46.5296 8.60938 46.2108 7.98438 45.7327 7.51563L38.4015 0.875004C37.6843 0.250004 36.5687 0.250004 35.8515 0.953129C35.214 1.65625 35.214 2.75 35.9312 3.45313L40.553 7.67188H30.9905C24.6952 7.67188 19.5952 12.6719 19.5952 18.8438V30.5625C19.7546 31.5 20.5515 32.2813 21.5077 32.2813Z" fill="#111928"/>
<path id="Vector_2" d="M45.0154 28.7656C44.0592 28.7656 43.1826 29.5469 43.1826 30.5625V41.8906C43.1826 43.1406 42.1467 44.1563 40.8717 44.1563H6.12793C4.85293 44.1563 3.81699 43.1406 3.81699 41.8906V30.4844C3.81699 29.5469 3.02012 28.6875 1.98418 28.6875C0.948242 28.6875 0.151367 29.4687 0.151367 30.4844V41.8125C0.151367 45.0156 2.78106 47.5938 6.04824 47.5938H40.8717C44.1389 47.5938 46.7686 45.0156 46.7686 41.8125V30.4844C46.8482 29.5469 46.0514 28.7656 45.0154 28.7656Z" fill="#111928"/>
</g>
</svg>
