<svg width="45" height="27" viewBox="0 0 45 27" fill="none" xmlns="http://www.w3.org/2000/svg">
<g id="&#240;&#159;&#166;&#134; icon &#34;map&#34;">
<path id="Vector" d="M13.5 0H18V2.7H22.5V5.4H18V18.9H13.5V5.4H9V2.7H13.5V0ZM4.5 8.1V5.4H9V8.1H4.5ZM9 21.6V24.3H4.5V27H0V8.1H4.5V21.6H9ZM9 21.6H13.5V18.9H9V21.6ZM22.5 21.6H18V18.9H22.5V21.6ZM27 8.1V5.4H22.5V8.1H27ZM31.5 8.1H27V21.6H22.5V24.3H27V27H31.5V24.3H36V21.6H40.5V18.9H45V0H40.5V2.7H36V5.4H31.5V8.1ZM31.5 8.1H36V5.4H40.5V18.9H36V21.6H31.5V8.1Z" fill="black"/>
</g>
</svg>
