<svg width="38" height="26" viewBox="0 0 38 26" fill="none" xmlns="http://www.w3.org/2000/svg">
<path d="M19 26C16.5778 26 14.0763 25.3413 11.5591 24.05C9.58806 23.036 7.60119 21.632 5.65389 19.8727C2.36882 16.9 0.34236 13.9533 0.255286 13.832C-0.0850953 13.338 -0.0850953 12.662 0.255286 12.168C0.34236 12.0467 2.36882 9.1 5.65389 6.12733C7.60119 4.368 9.58806 2.964 11.5591 1.95C14.0763 0.658667 16.5778 0 19 0C21.4222 0 23.9237 0.658667 26.4409 1.95C28.4119 2.964 30.3988 4.368 32.3461 6.12733C35.6312 9.1 37.6656 12.0467 37.7447 12.168C38.0851 12.662 38.0851 13.338 37.7447 13.832C37.6576 13.9533 35.6312 16.9 32.3461 19.8727C30.3988 21.632 28.4119 23.036 26.4409 24.05C23.9237 25.3413 21.4222 26 19 26ZM2.89918 13C4.88605 15.574 11.4483 23.2267 19 23.2267C26.5675 23.2267 33.1139 15.574 35.1008 13C33.1139 10.426 26.5517 2.77333 19 2.77333C11.4325 2.77333 4.88605 10.426 2.89918 13Z" fill="#783D19"/>
<path d="M19 19.2399C15.8574 19.2399 13.3006 16.4406 13.3006 12.9999C13.3006 9.55922 15.8574 6.75989 19 6.75989C22.1426 6.75989 24.6994 9.55922 24.6994 12.9999C24.6994 16.4406 22.1426 19.2399 19 19.2399ZM19 9.53322C17.2506 9.53322 15.8336 11.0846 15.8336 12.9999C15.8336 14.9152 17.2506 16.4666 19 16.4666C20.7494 16.4666 22.1663 14.9152 22.1663 12.9999C22.1663 11.0846 20.7494 9.53322 19 9.53322Z" fill="#783D19"/>
</svg>
