<svg width="35" height="24" viewBox="0 0 35 24" fill="none" xmlns="http://www.w3.org/2000/svg">
<path d="M32.4117 0.398325C32.0836 0.143278 31.6385 0 31.1745 0C30.7105 0 30.2654 0.143278 29.9373 0.398325L2.59 21.661C2.42286 21.7865 2.28954 21.9366 2.19782 22.1026C2.10611 22.2686 2.05783 22.4471 2.05581 22.6277C2.05379 22.8084 2.09807 22.9875 2.18606 23.1547C2.27405 23.3219 2.404 23.4738 2.56831 23.6015C2.73262 23.7293 2.92801 23.8303 3.14308 23.8987C3.35815 23.9671 3.58859 24.0015 3.82095 23.9999C4.05332 23.9984 4.28295 23.9609 4.49646 23.8896C4.70996 23.8182 4.90307 23.7146 5.0645 23.5847L32.41 2.32202C32.7381 2.06689 32.9224 1.72092 32.9224 1.36017C32.9224 0.999425 32.7398 0.653449 32.4117 0.398325ZM5.439 16.7511L9.919 13.2683C9.79126 12.8501 9.72492 12.422 9.72125 11.9922C9.72125 8.75564 13.2038 6.12995 17.5 6.12995C18.0005 6.12995 18.487 6.17348 18.9613 6.24151L21.0665 4.60623C19.8876 4.45441 18.6949 4.37706 17.5 4.37495C6.02 4.37359 0 10.946 0 11.9922C0 12.5677 1.84975 14.8369 5.439 16.7511ZM29.5663 7.23736L25.0828 10.7201C25.2035 11.131 25.277 11.5541 25.277 11.9922C25.277 15.2287 21.7962 17.8517 17.5 17.8517C17.003 17.8517 16.52 17.8081 16.0492 17.7415L13.9423 19.3781C15.0658 19.5196 16.2452 19.6094 17.5 19.6094C28.98 19.6094 35 13.0343 35 11.9922C35 11.4153 33.152 9.14881 29.5663 7.23736Z" fill="#783D19"/>
</svg>
