<svg width="35" height="20" viewBox="0 0 35 20" fill="none" xmlns="http://www.w3.org/2000/svg">
<path d="M17.5 12.1452C18.9492 12.1452 20.124 11.1862 20.124 10.003C20.124 8.81994 18.9492 7.86084 17.5 7.86084C16.0508 7.86084 14.876 8.81994 14.876 10.003C14.876 11.1862 16.0508 12.1452 17.5 12.1452Z" fill="#783D19"/>
<path d="M34.7656 9.28898C33.6461 7.70375 27.4885 -0.250972 17.0277 0.00609254C7.35403 0.206032 1.75626 7.14677 0.234363 9.28898C0.080829 9.50608 0 9.75236 0 10.003C0 10.2537 0.080829 10.5 0.234363 10.7171C1.33642 12.2738 7.23158 20 17.535 20H17.9723C27.646 19.8001 33.2612 12.8593 34.7656 10.7171C34.9192 10.5 35 10.2537 35 10.003C35 9.75236 34.9192 9.50608 34.7656 9.28898ZM17.5 15.0015C16.2891 15.0015 15.1053 14.7084 14.0985 14.1591C13.0916 13.6099 12.3069 12.8292 11.8435 11.9159C11.3801 11.0025 11.2588 9.9975 11.4951 9.02789C11.7313 8.05828 12.3144 7.16764 13.1707 6.46859C14.0269 5.76954 15.1179 5.29348 16.3055 5.10061C17.4932 4.90775 18.7243 5.00673 19.843 5.38506C20.9618 5.76338 21.918 6.40405 22.5907 7.22604C23.2635 8.04804 23.6226 9.01444 23.6226 10.003C23.6226 11.3287 22.9775 12.6001 21.8293 13.5375C20.6811 14.4749 19.1238 15.0015 17.5 15.0015Z" fill="#783D19"/>
</svg>
