<svg width="48" height="29" viewBox="0 0 48 29" fill="none" xmlns="http://www.w3.org/2000/svg">
<g id="&#240;&#159;&#166;&#134; icon &#34;eye closed&#34;" filter="url(#filter0_d_54_60)">
<g id="Vector" filter="url(#filter1_d_54_60)">
<path d="M4 0H7.33333V4.16H4V0ZM10.6667 8.32H7.33333V4.16H10.6667V8.32ZM17.3333 12.48V8.32H10.6667V12.48H7.33333V16.64H10.6667V12.48H17.3333ZM30.6667 12.48H17.3333V16.64H14V20.8H17.3333V16.64H30.6667V20.8H34V16.64H30.6667V12.48ZM37.3333 8.32H30.6667V12.48H37.3333V16.64H40.6667V12.48H37.3333V8.32ZM40.6667 4.16V8.32H37.3333V4.16H40.6667ZM40.6667 4.16V0H44V4.16H40.6667Z" fill="#783D19"/>
<path d="M10.1667 7.82H7.83333V4.66H10.1667V7.82ZM16.8333 11.98H11.1667V8.82H16.8333V11.98ZM7.83333 12.98H10.1667V16.14H7.83333V12.98ZM6.83333 3.66H4.5V0.5H6.83333V3.66ZM40.1667 4.66V7.82H37.8333V4.66H40.1667ZM41.1667 3.66V0.5H43.5V3.66H41.1667ZM36.8333 8.82V11.98H31.1667V8.82H36.8333ZM37.8333 16.14V12.98H40.1667V16.14H37.8333ZM30.1667 12.98V16.14H17.8333V12.98H30.1667ZM31.1667 20.3V17.14H33.5V20.3H31.1667ZM14.5 17.14H16.8333V20.3H14.5V17.14Z" stroke="black"/>
</g>
</g>
<defs>
<filter id="filter0_d_54_60" x="0" y="0" width="48" height="28.8" filterUnits="userSpaceOnUse" color-interpolation-filters="sRGB">
<feFlood flood-opacity="0" result="BackgroundImageFix"/>
<feColorMatrix in="SourceAlpha" type="matrix" values="0 0 0 0 0 0 0 0 0 0 0 0 0 0 0 0 0 0 127 0" result="hardAlpha"/>
<feOffset dy="4"/>
<feGaussianBlur stdDeviation="2"/>
<feComposite in2="hardAlpha" operator="out"/>
<feColorMatrix type="matrix" values="0 0 0 0 0 0 0 0 0 0 0 0 0 0 0 0 0 0 0.25 0"/>
<feBlend mode="normal" in2="BackgroundImageFix" result="effect1_dropShadow_54_60"/>
<feBlend mode="normal" in="SourceGraphic" in2="effect1_dropShadow_54_60" result="shape"/>
</filter>
<filter id="filter1_d_54_60" x="0" y="0" width="48" height="28.8" filterUnits="userSpaceOnUse" color-interpolation-filters="sRGB">
<feFlood flood-opacity="0" result="BackgroundImageFix"/>
<feColorMatrix in="SourceAlpha" type="matrix" values="0 0 0 0 0 0 0 0 0 0 0 0 0 0 0 0 0 0 127 0" result="hardAlpha"/>
<feOffset dy="4"/>
<feGaussianBlur stdDeviation="2"/>
<feComposite in2="hardAlpha" operator="out"/>
<feColorMatrix type="matrix" values="0 0 0 0 0 0 0 0 0 0 0 0 0 0 0 0 0 0 0.25 0"/>
<feBlend mode="normal" in2="BackgroundImageFix" result="effect1_dropShadow_54_60"/>
<feBlend mode="normal" in="SourceGraphic" in2="effect1_dropShadow_54_60" result="shape"/>
</filter>
</defs>
</svg>
