<svg width="40" height="28" viewBox="0 0 40 28" fill="none" xmlns="http://www.w3.org/2000/svg">
<path d="M30.26 21.02C27.3074 22.5599 23.7121 23.413 20 23.4545C7.90909 23.4545 1 14 1 14C3.14854 11.2604 6.12851 8.8669 9.74 6.98M16.3727 4.82909C17.5617 4.63868 18.7789 4.54349 20 4.54545C32.0909 4.54545 39 14 39 14C37.9515 15.3421 36.7011 16.6056 35.2691 17.77M23.6618 16.5055C23.1874 16.8538 22.6154 17.1332 21.9797 17.327C21.3441 17.5207 20.6579 17.6249 19.9622 17.6333C19.2664 17.6417 18.5753 17.5542 17.9301 17.3759C17.2848 17.1975 16.6987 16.9321 16.2066 16.5955C15.7146 16.2588 15.3267 15.8577 15.0661 15.4163C14.8054 14.9748 14.6775 14.5019 14.6897 14.0259C14.702 13.5498 14.8543 13.0804 15.1375 12.6455C15.4207 12.2105 15.8291 11.8191 16.3382 11.4945M1 1L39 27" stroke="#783D19" stroke-width="2" stroke-linecap="round" stroke-linejoin="round"/>
</svg>
