<svg width="155" height="173" viewBox="0 0 155 173" fill="none" xmlns="http://www.w3.org/2000/svg">
<g id="&#240;&#159;&#166;&#134; icon &#34;newspaper&#34;">
<path id="Vector" d="M141.13 30.8928H132.888C132.88 30.8928 132.872 30.8965 132.866 30.903C132.86 30.9095 132.857 30.9184 132.857 30.9276V148.286C132.857 151.563 134.024 154.706 136.1 157.023C138.176 159.341 140.992 160.643 143.929 160.643C146.865 160.643 149.681 159.341 151.757 157.023C153.834 154.706 155 151.563 155 148.286V46.374C155 42.2681 153.539 38.3304 150.937 35.4272C148.336 32.5239 144.808 30.8928 141.13 30.8928Z" fill="#783D19"/>
<path id="Vector_2" d="M121.786 148.286V15.4464C121.786 13.418 121.428 11.4094 120.732 9.53534C120.037 7.66129 119.017 5.95849 117.732 4.52415C116.447 3.08982 114.922 1.95205 113.242 1.17579C111.563 0.399534 109.764 0 107.946 0H13.8393C10.1689 0 6.6488 1.62739 4.05343 4.52415C1.45806 7.42092 0 11.3498 0 15.4464V151.375C0 157.11 2.04129 162.611 5.67481 166.666C9.30832 170.722 14.2364 173 19.375 173H137.995C138.047 173.001 138.099 172.989 138.148 172.967C138.196 172.945 138.24 172.912 138.277 172.871C138.314 172.83 138.344 172.781 138.364 172.726C138.383 172.672 138.393 172.614 138.393 172.556C138.393 172.459 138.364 172.365 138.311 172.288C138.257 172.211 138.183 172.156 138.099 172.131C133.416 170.697 129.284 167.588 126.337 163.281C123.39 158.973 121.791 153.705 121.786 148.286ZM22.1429 37.0714C22.1429 35.4328 22.7261 33.8612 23.7642 32.7025C24.8024 31.5438 26.2104 30.8929 27.6786 30.8929H49.8214C51.2896 30.8929 52.6976 31.5438 53.7358 32.7025C54.7739 33.8612 55.3571 35.4328 55.3571 37.0714V61.7857C55.3571 63.4244 54.7739 64.9959 53.7358 66.1546C52.6976 67.3133 51.2896 67.9643 49.8214 67.9643H27.6786C26.2104 67.9643 24.8024 67.3133 23.7642 66.1546C22.7261 64.9959 22.1429 63.4244 22.1429 61.7857V37.0714ZM94.1071 142.107H27.8343C24.8554 142.107 22.2985 139.551 22.1498 136.226C22.1137 135.391 22.23 134.556 22.4916 133.772C22.7531 132.988 23.1545 132.272 23.6715 131.666C24.1884 131.061 24.8101 130.579 25.4989 130.249C26.1877 129.92 26.9292 129.75 27.6786 129.75H93.9514C96.9304 129.75 99.4872 132.306 99.6359 135.631C99.672 136.467 99.5557 137.301 99.2942 138.085C99.0326 138.869 98.6312 139.585 98.1142 140.191C97.5973 140.796 96.9756 141.278 96.2868 141.608C95.598 141.937 94.8565 142.107 94.1071 142.107ZM94.1071 117.393H27.8343C24.8554 117.393 22.2985 114.836 22.1498 111.512C22.1137 110.676 22.23 109.841 22.4916 109.058C22.7531 108.274 23.1545 107.557 23.6715 106.952C24.1884 106.347 24.8101 105.864 25.4989 105.535C26.1877 105.206 26.9292 105.036 27.6786 105.036H93.9514C96.9304 105.036 99.4872 107.592 99.6359 110.917C99.672 111.752 99.5557 112.587 99.2942 113.371C99.0326 114.155 98.6312 114.871 98.1142 115.477C97.5973 116.082 96.9756 116.564 96.2868 116.894C95.598 117.223 94.8565 117.393 94.1071 117.393ZM94.1071 92.6786H27.8343C24.8554 92.6786 22.2985 90.1222 22.1498 86.7973C22.1137 85.9619 22.23 85.1271 22.4916 84.3433C22.7531 83.5595 23.1545 82.8432 23.6715 82.2377C24.1884 81.6322 24.8101 81.1502 25.4989 80.8208C26.1877 80.4914 26.9292 80.3215 27.6786 80.3214H93.9514C96.9304 80.3214 99.4872 82.8778 99.6359 86.2027C99.672 87.0381 99.5557 87.8729 99.2942 88.6567C99.0326 89.4405 98.6312 90.1568 98.1142 90.7623C97.5973 91.3678 96.9756 91.8498 96.2868 92.1792C95.598 92.5086 94.8565 92.6785 94.1071 92.6786ZM94.1071 67.9643H72.12C69.1411 67.9643 66.5843 65.4079 66.4355 62.0831C66.3994 61.2477 66.5157 60.4128 66.7773 59.629C67.0388 58.8453 67.4403 58.1289 67.9572 57.5234C68.4741 56.9179 69.0958 56.4359 69.7846 56.1065C70.4734 55.7771 71.2149 55.6072 71.9643 55.6071H93.9514C96.9304 55.6071 99.4872 58.1635 99.6359 61.4884C99.672 62.3238 99.5557 63.1586 99.2942 63.9424C99.0326 64.7262 98.6312 65.4425 98.1142 66.048C97.5973 66.6535 96.9756 67.1355 96.2868 67.4649C95.598 67.7943 94.8565 67.9642 94.1071 67.9643ZM94.1071 43.25H72.12C69.1411 43.25 66.5843 40.6936 66.4355 37.3688C66.3994 36.5334 66.5157 35.6985 66.7773 34.9147C67.0388 34.131 67.4403 33.4146 67.9572 32.8091C68.4741 32.2037 69.0958 31.7216 69.7846 31.3922C70.4734 31.0628 71.2149 30.8929 71.9643 30.8929H93.9514C96.9304 30.8929 99.4872 33.4492 99.6359 36.7741C99.672 37.6095 99.5557 38.4444 99.2942 39.2281C99.0326 40.0119 98.6312 40.7282 98.1142 41.3337C97.5973 41.9392 96.9756 42.4213 96.2868 42.7506C95.598 43.08 94.8565 43.2499 94.1071 43.25Z" fill="#783D19"/>
</g>
</svg>
