<svg width="60" height="52" viewBox="0 0 60 52" fill="none" xmlns="http://www.w3.org/2000/svg">
<g id="Group">
<path id="Vector" d="M30 12.0781C24.6719 12.0781 20.3125 15.7906 20.3125 20.2625C20.3125 24.7344 24.6719 28.5312 30 28.5312C35.3281 28.5312 39.6875 24.8187 39.6875 20.3469C39.6875 15.875 35.3281 12.0781 30 12.0781ZM30 24.7344C27.0938 24.7344 24.6719 22.7937 24.6719 20.3469C24.6719 17.9 27.0938 15.875 30 15.875C32.9062 15.875 35.3281 17.8156 35.3281 20.2625C35.3281 22.7094 32.9062 24.7344 30 24.7344Z" fill="#111928"/>
<path id="Vector_2" d="M29.9999 0.518738C13.8218 0.518738 0.743652 11.9094 0.743652 26C0.743652 40.0906 13.8218 51.5656 29.9999 51.5656C46.178 51.5656 59.353 40.0906 59.353 26C59.353 11.9094 46.178 0.518738 29.9999 0.518738ZM18.1812 45.0687V38.15C18.1812 35.45 20.6999 33.2562 23.7999 33.2562H36.3937C39.4937 33.2562 42.0124 35.45 42.0124 38.15V45.0687C38.5249 46.7562 34.4562 47.6844 30.0968 47.6844C25.7374 47.7687 21.6687 46.7562 18.1812 45.0687ZM46.2749 42.4531V38.15C46.2749 33.3406 41.8187 29.4594 36.2968 29.4594H23.703C18.1812 29.4594 13.7249 33.3406 13.7249 38.15V42.4531C8.39678 38.4875 5.00615 32.5812 5.00615 26C5.10303 14.0187 16.2437 4.31561 29.9999 4.31561C43.7562 4.31561 54.9937 14.1031 54.9937 26.0844C54.9937 32.5812 51.603 38.4875 46.2749 42.4531Z" fill="#111928"/>
</g>
</svg>
