<svg width="61" height="55" viewBox="0 0 61 55" fill="none" xmlns="http://www.w3.org/2000/svg">
<g id="Group">
<path id="Vector" d="M30.5 12.8047C25.0859 12.8047 20.6562 16.7234 20.6562 21.4438C20.6562 26.1641 25.0859 30.1719 30.5 30.1719C35.9141 30.1719 40.3438 26.2531 40.3438 21.5328C40.3438 16.8125 35.9141 12.8047 30.5 12.8047ZM30.5 26.1641C27.5469 26.1641 25.0859 24.1156 25.0859 21.5328C25.0859 18.95 27.5469 16.8125 30.5 16.8125C33.4531 16.8125 35.9141 18.8609 35.9141 21.4438C35.9141 24.0266 33.4531 26.1641 30.5 26.1641Z" fill="#111928"/>
<path id="Vector_2" d="M30.5001 0.603149C14.061 0.603149 0.771973 12.6266 0.771973 27.5C0.771973 42.3735 14.061 54.486 30.5001 54.486C46.9392 54.486 60.3267 42.3735 60.3267 27.5C60.3267 12.6266 46.9392 0.603149 30.5001 0.603149ZM18.4907 47.6281V40.325C18.4907 37.475 21.0501 35.1594 24.2001 35.1594H36.997C40.147 35.1594 42.7063 37.475 42.7063 40.325V47.6281C39.1626 49.4094 35.0282 50.3891 30.5985 50.3891C26.1688 50.4781 22.0345 49.4094 18.4907 47.6281ZM47.0376 44.8672V40.325C47.0376 35.2485 42.5095 31.1516 36.8985 31.1516H24.1017C18.4907 31.1516 13.9626 35.2485 13.9626 40.325V44.8672C8.54853 40.6813 5.10322 34.4469 5.10322 27.5C5.20166 14.8532 16.522 4.61096 30.5001 4.61096C44.4782 4.61096 55.897 14.9422 55.897 27.5891C55.897 34.4469 52.4517 40.6813 47.0376 44.8672Z" fill="#111928"/>
</g>
</svg>
