<svg width="44" height="54" viewBox="0 0 44 54" fill="none" xmlns="http://www.w3.org/2000/svg">
<g id="Group">
<path id="Vector" d="M37.511 42.0066C37.2344 41.3191 36.5891 40.8035 35.8516 40.7175L32.0719 40.2019L30.3204 36.9363C29.9516 36.2488 29.2141 35.8191 28.4766 35.8191C27.7391 35.8191 27.0016 36.2488 26.6329 36.9363L24.8813 40.2019L21.0094 40.6316C20.2719 40.7175 19.6266 41.2332 19.35 41.9207C19.0735 42.6082 19.2579 43.3816 19.9032 43.8972L22.6688 46.4753L22.0235 50.0847C21.9313 50.7722 22.2079 51.5457 22.8532 51.9753C23.2219 52.2332 23.6828 52.3191 24.0516 52.3191C24.4204 52.3191 24.6969 52.2332 25.0657 52.0613L28.4766 50.3425L31.8875 52.0613C32.625 52.405 33.4547 52.3191 34.1 51.8894C34.7454 51.4597 35.0219 50.6863 34.9297 49.9988L34.2844 46.3894L37.05 43.8113C37.511 43.4675 37.6954 42.6941 37.511 42.0066ZM30.5047 44.4988C30.0438 44.9285 29.7672 45.616 29.9516 46.2175L30.0438 46.991L29.3985 46.6472C29.1219 46.4753 28.7532 46.3894 28.3844 46.3894C28.0157 46.3894 27.7391 46.4753 27.3704 46.6472L26.725 46.991L26.8172 46.2175C26.9094 45.616 26.725 44.9285 26.2641 44.4988L25.6188 43.8972L26.4485 43.8113C27.0938 43.7253 27.7391 43.2957 28.0157 42.78L28.3844 42.1785L28.7532 42.78C29.0297 43.3816 29.675 43.7253 30.3204 43.8113L31.15 43.8972L30.5047 44.4988Z" fill="#111928"/>
<path id="Vector_2" d="M41.6594 9.2644L32.9016 2.30347C31.7953 1.35815 30.3203 0.928467 28.8453 0.928467H6.62813C3.125 0.928467 0.359375 3.59253 0.359375 6.77222V47.0769C0.359375 50.3425 3.21719 52.9207 6.62813 52.9207H18.0594C19.1656 52.9207 20.1797 52.0613 20.1797 50.9441C20.1797 49.8269 19.2578 48.9675 18.0594 48.9675H6.62813C5.42969 48.9675 4.50781 48.1082 4.50781 46.991V6.77222C4.50781 5.65503 5.42969 4.79565 6.62813 4.79565H28.8453C29.3062 4.79565 29.8594 4.96753 30.2281 5.31128L38.9859 12.2722C39.4469 12.616 39.7234 13.2175 39.7234 13.8191V48.7957C39.7234 48.9675 39.5391 49.1394 39.3547 49.1394C38.2484 49.1394 37.2344 49.9988 37.2344 51.116C37.2344 52.2332 38.1563 53.0925 39.3547 53.0925C41.8438 53.0925 43.8719 51.2019 43.8719 48.8816V13.7332C43.8719 12.0144 43.0422 10.3816 41.6594 9.2644Z" fill="#111928"/>
<path id="Vector_3" d="M10.7766 15.1941H23.0375C24.1438 15.1941 25.1578 14.3347 25.1578 13.2175C25.1578 12.1003 24.2359 11.241 23.0375 11.241H10.7766C9.67031 11.241 8.65625 12.1003 8.65625 13.2175C8.65625 14.3347 9.67031 15.1941 10.7766 15.1941Z" fill="#111928"/>
<path id="Vector_4" d="M10.7766 24.2175H31.7953C32.9016 24.2175 33.9156 23.3582 33.9156 22.241C33.9156 21.1238 32.9937 20.2644 31.7953 20.2644H10.7766C9.67031 20.2644 8.65625 21.1238 8.65625 22.241C8.65625 23.3582 9.67031 24.2175 10.7766 24.2175Z" fill="#111928"/>
</g>
</svg>
